<?xml version="1.0" standalone="no"?>
<!DOCTYPE svg PUBLIC "-//W3C//DTD SVG 20010904//EN"
 "http://www.w3.org/TR/2001/REC-SVG-20010904/DTD/svg10.dtd">
<svg version="1.0" xmlns="http://www.w3.org/2000/svg"
 width="512.000000pt" height="512.000000pt" viewBox="0 0 512.000000 512.000000"
 preserveAspectRatio="xMidYMid meet">

<g transform="translate(0.000000,512.000000) scale(0.100000,-0.100000)"
fill="#000000" stroke="none">
<path d="M2755 5109 c-21 -6 -412 -391 -1277 -1256 l-1248 -1248 0 -45 0 -45
1248 -1248 c992 -992 1254 -1249 1282 -1257 49 -14 2003 -13 2052 0 47 13 78
56 78 106 0 38 -24 63 -1202 1241 l-1203 1203 1203 1203 c1178 1178 1202 1203
1202 1241 0 50 -31 93 -78 106 -46 12 -2013 12 -2057 -1z"/>
</g>
</svg>
